<?xml version="1.0" standalone="no"?>
<!DOCTYPE svg PUBLIC "-//W3C//DTD SVG 20010904//EN"
 "http://www.w3.org/TR/2001/REC-SVG-20010904/DTD/svg10.dtd">
<svg version="1.0" xmlns="http://www.w3.org/2000/svg"
 width="740.000000pt" height="740.000000pt" viewBox="0 0 740.000000 740.000000"
 preserveAspectRatio="xMidYMid meet">

<g transform="translate(0.000000,740.000000) scale(0.100000,-0.100000)"
fill="#000000" stroke="none">
<path d="M5025 6691 c-338 -62 -600 -193 -841 -424 -139 -133 -226 -242 -350
-443 -13 -21 -20 -15 -181 145 -410 407 -791 605 -1278 662 -141 17 -422 7
-555 -20 -483 -96 -833 -360 -1037 -781 -277 -572 -295 -1213 -54 -1911 440
-1273 1770 -2600 3159 -3150 67 -27 126 -49 130 -49 4 0 -60 35 -143 78 -430
224 -775 459 -1191 812 -164 140 -583 565 -728 739 -614 737 -963 1426 -1068
2106 -27 181 -30 486 -4 645 54 345 200 671 384 862 388 403 1139 450 1707
107 305 -184 566 -449 850 -862 47 -69 82 -111 86 -104 4 7 32 86 64 177 109
316 234 529 425 720 154 155 317 260 498 320 463 153 904 50 1253 -294 414
-409 542 -1097 348 -1871 -184 -730 -654 -1593 -1278 -2345 -75 -91 -262 -303
-291 -330 -3 -3 -14 -16 -25 -30 -42 -51 177 151 340 315 753 757 1322 1705
1520 2529 47 196 66 341 72 556 15 497 -96 893 -347 1243 -65 91 -252 273
-353 344 -162 114 -369 206 -557 248 -116 27 -426 30 -555 6z"/>
<path d="M5133 5435 c-69 -35 -134 -109 -183 -209 -53 -108 -70 -180 -70 -297
0 -123 20 -188 75 -246 38 -39 46 -43 90 -43 60 0 97 22 169 102 63 70 124
181 157 288 33 103 35 297 4 349 -31 53 -67 74 -132 79 -48 3 -67 -1 -110 -23z"/>
<path d="M4525 5262 c-165 -101 -227 -430 -121 -641 26 -50 80 -105 116 -116
151 -48 305 285 260 562 -16 102 -35 146 -76 183 -30 26 -43 30 -92 30 -38 0
-67 -6 -87 -18z"/>
<path d="M5770 5136 c-205 -54 -430 -360 -430 -584 0 -62 2 -66 40 -104 l40
-40 72 4 c314 16 617 484 441 679 -20 22 -47 42 -62 45 -14 3 -33 7 -41 9 -8
2 -35 -2 -60 -9z"/>
<path d="M4925 4513 c-241 -38 -502 -171 -606 -310 -70 -92 -84 -129 -84 -224
0 -78 3 -90 30 -135 43 -71 107 -101 245 -114 190 -19 251 -49 345 -170 83
-107 136 -155 188 -169 107 -31 232 23 298 128 112 175 101 510 -25 776 -52
111 -91 156 -162 191 -56 27 -155 39 -229 27z"/>
<path d="M5930 4502 c-108 -36 -181 -83 -275 -177 -217 -217 -214 -407 6 -407
229 0 500 232 503 430 2 134 -97 199 -234 154z"/>
<path d="M2925 4058 c-54 -31 -75 -76 -75 -159 0 -189 124 -428 281 -544 99
-73 166 -81 228 -29 96 81 86 324 -22 514 -38 68 -158 190 -212 215 -22 10
-67 20 -100 22 -49 3 -68 -1 -100 -19z"/>
<path d="M3570 3978 c-59 -41 -75 -87 -75 -218 0 -132 21 -216 83 -335 47 -90
134 -179 184 -189 74 -14 134 36 174 144 21 57 24 214 5 290 -19 80 -74 189
-120 242 -75 85 -182 113 -251 66z"/>
<path d="M2420 3669 c-108 -45 -132 -191 -55 -339 49 -94 164 -212 255 -262
211 -117 406 -82 403 71 -3 127 -128 319 -279 427 -124 88 -258 131 -324 103z"/>
<path d="M3338 3180 c-64 -11 -134 -47 -171 -89 -40 -47 -81 -138 -103 -236
-27 -113 -27 -380 0 -480 53 -203 161 -319 308 -332 115 -11 183 39 268 196
81 152 134 192 307 235 112 27 167 52 199 88 68 74 80 190 31 291 -78 159
-295 281 -572 322 -107 16 -192 17 -267 5z"/>
<path d="M2312 3010 c-78 -35 -104 -148 -56 -242 78 -154 304 -287 490 -288
145 0 231 86 190 193 -53 138 -247 290 -432 337 -96 25 -137 25 -192 0z"/>
</g>
</svg>
